HIERARCHY
ROOT newVegas:Hips
{
	OFFSET 0.000000 96.479958 0.000000
	CHANNELS 6 Xposition Yposition Zposition Xrotation Yrotation Zrotation
	JOINT newVegas:Pelvis
	{
		OFFSET 0.000000 0.000000 0.000000
		CHANNELS 3 Xrotation Yrotation Zrotation
		JOINT newVegas:LeftUpLeg
		{
			OFFSET 18.735201 -5.666702 -4.541200
			CHANNELS 3 Xrotation Yrotation Zrotation
			JOINT newVegas:LeftLeg
			{
				OFFSET -0.021200 -31.938179 0.493100
				CHANNELS 3 Xrotation Yrotation Zrotation
				JOINT newVegas:LeftFoot
				{
					OFFSET 0.021200 -31.938179 -4.336299
					CHANNELS 3 Xrotation Yrotation Zrotation
					JOINT newVegas:LeftToeBase
					{
						OFFSET 0.943001 -26.722000 15.023500
						CHANNELS 3 Xrotation Yrotation Zrotation
						End Site
						{
							OFFSET 0.000000 30.670183 0.000000
						}
					}
				}
				JOINT newVegas:Left_PantLeg
				{
					OFFSET 0.663870 -9.044666 -1.108900
					CHANNELS 3 Xrotation Yrotation Zrotation
					End Site
					{
						OFFSET 1.415995 20.635357 0.000000
					}
				}
			}
		}
		JOINT newVegas:RightUpLeg
		{
			OFFSET -18.735201 -5.666702 -4.541200
			CHANNELS 3 Xrotation Yrotation Zrotation
			JOINT newVegas:RightLeg
			{
				OFFSET 0.018946 -31.938133 0.493100
				CHANNELS 3 Xrotation Yrotation Zrotation
				JOINT newVegas:RightFoot
				{
					OFFSET -0.018946 -31.938126 -4.336299
					CHANNELS 3 Xrotation Yrotation Zrotation
					JOINT newVegas:RightToeBase
					{
						OFFSET -0.943001 -26.722004 15.023500
						CHANNELS 3 Xrotation Yrotation Zrotation
						End Site
						{
							OFFSET 0.000000 30.670187 0.000000
						}
					}
				}
				JOINT newVegas:Right_PantLeg
				{
					OFFSET -0.661674 -9.044716 -1.108900
					CHANNELS 3 Xrotation Yrotation Zrotation
					End Site
					{
						OFFSET -1.415958 20.635269 0.000000
					}
				}
			}
		}
	}
	JOINT newVegas:Spine
	{
		OFFSET 0.000000 10.199997 -0.299500
		CHANNELS 3 Xrotation Yrotation Zrotation
		JOINT newVegas:Spine1
		{
			OFFSET 0.000000 11.900002 -1.516600
			CHANNELS 3 Xrotation Yrotation Zrotation
			JOINT newVegas:Spine2
			{
				OFFSET 0.000000 13.600006 -2.842500
				CHANNELS 3 Xrotation Yrotation Zrotation
				JOINT newVegas:Neck
				{
					OFFSET 0.000000 9.624100 -2.890100
					CHANNELS 3 Xrotation Yrotation Zrotation
					JOINT newVegas:Head
					{
						OFFSET 0.000000 14.068802 -1.351900
						CHANNELS 3 Xrotation Yrotation Zrotation
						JOINT newVegas:Hair_Back
						{
							OFFSET 0.000000 3.231903 -17.524799
							CHANNELS 3 Xrotation Yrotation Zrotation
							End Site
							{
								OFFSET 0.000000 19.849884 0.000000
							}
						}
						JOINT newVegas:Hair_Front
						{
							OFFSET 0.000000 31.260406 4.573800
							CHANNELS 3 Xrotation Yrotation Zrotation
							JOINT newVegas:Hair_Front1
							{
								OFFSET 0.000000 2.284103 11.993300
								CHANNELS 3 Xrotation Yrotation Zrotation
								JOINT newVegas:Hair_Front2
								{
									OFFSET 0.000000 2.284103 11.993300
									CHANNELS 3 Xrotation Yrotation Zrotation
									End Site
									{
										OFFSET 0.000000 12.208862 0.000000
									}
								}
							}
						}
						JOINT newVegas:Jowel
						{
							OFFSET 0.000000 -7.458206 6.864100
							CHANNELS 3 Xrotation Yrotation Zrotation
							End Site
							{
								OFFSET 0.000000 19.849884 0.000000
							}
						}
					}
				}
				JOINT newVegas:LeftShoulder
				{
					OFFSET 15.263000 10.923401 -0.547700
					CHANNELS 3 Xrotation Yrotation Zrotation
					JOINT newVegas:LeftArm
					{
						OFFSET 25.438599 -2.830597 -13.032500
						CHANNELS 3 Xrotation Yrotation Zrotation
						JOINT newVegas:LeftForeArm
						{
							OFFSET 29.960503 0.000000 0.000000
							CHANNELS 3 Xrotation Yrotation Zrotation
							JOINT newVegas:LeftHand
							{
								OFFSET 27.849251 0.000000 0.000000
								CHANNELS 3 Xrotation Yrotation Zrotation
								JOINT newVegas:LeftHandThumb1
								{
									OFFSET 4.487587 -3.305161 6.305391
									CHANNELS 3 Xrotation Yrotation Zrotation
									JOINT newVegas:LeftHandThumb2
									{
										OFFSET 5.480453 -3.164139 3.164143
										CHANNELS 3 Xrotation Yrotation Zrotation
										JOINT newVegas:LeftHandThumb3
										{
											OFFSET 5.159721 -2.978973 2.978967
											CHANNELS 3 Xrotation Yrotation Zrotation
											End Site
											{
												OFFSET 2.494507 5.926697 1.738678
											}
										}
									}
								}
								JOINT newVegas:LeftHandIndex1
								{
									OFFSET 18.578728 -0.527832 5.208049
									CHANNELS 3 Xrotation Yrotation Zrotation
									JOINT newVegas:LeftHandIndex2
									{
										OFFSET 3.192009 0.000000 0.000000
										CHANNELS 3 Xrotation Yrotation Zrotation
										JOINT newVegas:LeftHandIndex3
										{
											OFFSET 3.835129 0.000000 0.000000
											CHANNELS 3 Xrotation Yrotation Zrotation
											End Site
											{
												OFFSET -0.034599 3.816971 0.371180
											}
										}
									}
								}
								JOINT newVegas:LeftHandMiddle1
								{
									OFFSET 18.476105 0.000000 0.000000
									CHANNELS 3 Xrotation Yrotation Zrotation
									JOINT newVegas:LeftHandMiddle2
									{
										OFFSET 3.324875 0.000000 0.000000
										CHANNELS 3 Xrotation Yrotation Zrotation
										JOINT newVegas:LeftHandMiddle3
										{
											OFFSET 4.596550 0.000000 0.000000
											CHANNELS 3 Xrotation Yrotation Zrotation
											End Site
											{
												OFFSET 0.057701 4.578827 0.399218
											}
										}
									}
								}
								JOINT newVegas:LeftHandRing1
								{
									OFFSET 17.732719 0.121887 -4.201567
									CHANNELS 3 Xrotation Yrotation Zrotation
									JOINT newVegas:LeftHandRing2
									{
										OFFSET 2.733170 0.000000 0.000000
										CHANNELS 3 Xrotation Yrotation Zrotation
										JOINT newVegas:LeftHandRing3
										{
											OFFSET 3.178268 0.000000 0.000000
											CHANNELS 3 Xrotation Yrotation Zrotation
											End Site
											{
												OFFSET 0.119102 3.170624 0.185394
											}
										}
									}
								}
								JOINT newVegas:LeftHandPinky1
								{
									OFFSET 15.989624 -0.606689 -7.535461
									CHANNELS 3 Xrotation Yrotation Zrotation
									JOINT newVegas:LeftHandPinky2
									{
										OFFSET 2.538986 0.000000 0.000000
										CHANNELS 3 Xrotation Yrotation Zrotation
										JOINT newVegas:LeftHandPinky3
										{
											OFFSET 2.593102 0.000000 0.000000
											CHANNELS 3 Xrotation Yrotation Zrotation
											End Site
											{
												OFFSET -0.150902 2.584198 0.152708
											}
										}
									}
								}
							}
							JOINT newVegas:Left_Sleeve
							{
								OFFSET 0.267448 -0.649796 0.577675
								CHANNELS 3 Xrotation Yrotation Zrotation
								End Site
								{
									OFFSET 0.000000 15.991241 0.000000
								}
							}
							JOINT newVegas:Left_CapeC
							{
								OFFSET 15.715958 -8.608795 -6.935905
								CHANNELS 3 Xrotation Yrotation Zrotation
								JOINT newVegas:Left_CapeC1
								{
									OFFSET 0.000000 -8.688499 0.000000
									CHANNELS 3 Xrotation Yrotation Zrotation
									End Site
									{
										OFFSET 0.000000 8.688499 0.000000
									}
								}
							}
						}
						JOINT newVegas:Left_CapeB
						{
							OFFSET 26.118385 -8.608795 -7.079235
							CHANNELS 3 Xrotation Yrotation Zrotation
							JOINT newVegas:Left_CapeB1
							{
								OFFSET 0.000000 -8.688499 0.000000
								CHANNELS 3 Xrotation Yrotation Zrotation
								End Site
								{
									OFFSET 0.000000 8.688499 0.000000
								}
							}
						}
						JOINT newVegas:Left_CapeA
						{
							OFFSET 5.115639 -8.608795 -10.395809
							CHANNELS 3 Xrotation Yrotation Zrotation
							JOINT newVegas:Left_CapeA1
							{
								OFFSET 0.000000 -8.688499 0.000000
								CHANNELS 3 Xrotation Yrotation Zrotation
								End Site
								{
									OFFSET 0.000000 8.688499 0.000000
								}
							}
						}
					}
				}
				JOINT newVegas:RightShoulder
				{
					OFFSET -15.263000 10.923401 -0.547700
					CHANNELS 3 Xrotation Yrotation Zrotation
					JOINT newVegas:RightArm
					{
						OFFSET -25.438599 -2.830597 -13.032500
						CHANNELS 3 Xrotation Yrotation Zrotation
						JOINT newVegas:RightForeArm
						{
							OFFSET -29.960503 0.000000 0.000000
							CHANNELS 3 Xrotation Yrotation Zrotation
							JOINT newVegas:RightHand
							{
								OFFSET -27.849251 0.000000 0.000000
								CHANNELS 3 Xrotation Yrotation Zrotation
								JOINT newVegas:RightHandThumb1
								{
									OFFSET -4.487587 -3.305161 6.305391
									CHANNELS 3 Xrotation Yrotation Zrotation
									JOINT newVegas:RightHandThumb2
									{
										OFFSET -5.480453 -3.164139 3.164143
										CHANNELS 3 Xrotation Yrotation Zrotation
										JOINT newVegas:RightHandThumb3
										{
											OFFSET -5.159721 -2.978973 2.978967
											CHANNELS 3 Xrotation Yrotation Zrotation
											End Site
											{
												OFFSET -2.494507 5.926697 1.738678
											}
										}
									}
								}
								JOINT newVegas:RightHandIndex1
								{
									OFFSET -18.578728 -0.527832 5.208049
									CHANNELS 3 Xrotation Yrotation Zrotation
									JOINT newVegas:RightHandIndex2
									{
										OFFSET -3.192009 0.000000 0.000000
										CHANNELS 3 Xrotation Yrotation Zrotation
										JOINT newVegas:RightHandIndex3
										{
											OFFSET -3.835129 0.000000 0.000000
											CHANNELS 3 Xrotation Yrotation Zrotation
											End Site
											{
												OFFSET 0.034599 3.816971 0.371180
											}
										}
									}
								}
								JOINT newVegas:RightHandMiddle1
								{
									OFFSET -18.476105 0.000000 0.000000
									CHANNELS 3 Xrotation Yrotation Zrotation
									JOINT newVegas:RightHandMiddle2
									{
										OFFSET -3.324875 0.000000 0.000000
										CHANNELS 3 Xrotation Yrotation Zrotation
										JOINT newVegas:RightHandMiddle3
										{
											OFFSET -4.596550 0.000000 0.000000
											CHANNELS 3 Xrotation Yrotation Zrotation
											End Site
											{
												OFFSET -0.057701 4.578827 0.399218
											}
										}
									}
								}
								JOINT newVegas:RightHandRing1
								{
									OFFSET -17.732719 0.121887 -4.201567
									CHANNELS 3 Xrotation Yrotation Zrotation
									JOINT newVegas:RightHandRing2
									{
										OFFSET -2.733170 0.000000 0.000000
										CHANNELS 3 Xrotation Yrotation Zrotation
										JOINT newVegas:RightHandRing3
										{
											OFFSET -3.178268 0.000000 0.000000
											CHANNELS 3 Xrotation Yrotation Zrotation
											End Site
											{
												OFFSET -0.119102 3.170624 0.185394
											}
										}
									}
								}
								JOINT newVegas:RightHandPinky1
								{
									OFFSET -15.989624 -0.606689 -7.535461
									CHANNELS 3 Xrotation Yrotation Zrotation
									JOINT newVegas:RightHandPinky2
									{
										OFFSET -2.538986 0.000000 0.000000
										CHANNELS 3 Xrotation Yrotation Zrotation
										JOINT newVegas:RightHandPinky3
										{
											OFFSET -2.593102 0.000000 0.000000
											CHANNELS 3 Xrotation Yrotation Zrotation
											End Site
											{
												OFFSET 0.150902 2.584198 0.152708
											}
										}
									}
								}
							}
							JOINT newVegas:Right_CapeC
							{
								OFFSET -15.715958 -8.608795 -6.935905
								CHANNELS 3 Xrotation Yrotation Zrotation
								JOINT newVegas:Right_CapeC1
								{
									OFFSET 0.000000 -8.688499 0.000000
									CHANNELS 3 Xrotation Yrotation Zrotation
									End Site
									{
										OFFSET 0.000000 8.688499 0.000000
									}
								}
							}
							JOINT newVegas:Right_Sleeve
							{
								OFFSET -0.267448 -0.649994 0.577675
								CHANNELS 3 Xrotation Yrotation Zrotation
								End Site
								{
									OFFSET 0.000000 15.991302 0.000000
								}
							}
						}
						JOINT newVegas:Right_CapeA
						{
							OFFSET -5.115540 -8.608795 -10.395824
							CHANNELS 3 Xrotation Yrotation Zrotation
							JOINT newVegas:Right_CapeA1
							{
								OFFSET 0.000000 -8.688499 0.000000
								CHANNELS 3 Xrotation Yrotation Zrotation
								End Site
								{
									OFFSET 0.000000 8.688499 0.000000
								}
							}
						}
						JOINT newVegas:Right_CapeB
						{
							OFFSET -26.118187 -8.608795 -7.079266
							CHANNELS 3 Xrotation Yrotation Zrotation
							JOINT newVegas:Right_CapeB1
							{
								OFFSET 0.000000 -8.688499 0.000000
								CHANNELS 3 Xrotation Yrotation Zrotation
								End Site
								{
									OFFSET 0.000000 8.688499 0.000000
								}
							}
						}
					}
				}
				JOINT newVegas:Left_Collar
				{
					OFFSET 18.625099 8.655502 8.828100
					CHANNELS 3 Xrotation Yrotation Zrotation
					JOINT newVegas:Left_Collar1
					{
						OFFSET 14.783401 10.540405 -1.259500
						CHANNELS 3 Xrotation Yrotation Zrotation
						End Site
						{
							OFFSET 0.000000 18.199875 0.000000
						}
					}
				}
				JOINT newVegas:Collar_Back
				{
					OFFSET 0.000000 15.630707 -20.132601
					CHANNELS 3 Xrotation Yrotation Zrotation
					End Site
					{
						OFFSET 0.000000 22.523010 0.000000
					}
				}
				JOINT newVegas:Left_Peck
				{
					OFFSET 17.239599 -5.132599 25.482599
					CHANNELS 3 Xrotation Yrotation Zrotation
					End Site
					{
						OFFSET 0.000000 22.523010 0.000000
					}
				}
				JOINT newVegas:Right_Peck
				{
					OFFSET -17.239599 -5.132202 25.482599
					CHANNELS 3 Xrotation Yrotation Zrotation
					End Site
					{
						OFFSET 0.000000 22.523010 0.000000
					}
				}
				JOINT newVegas:Right_Collar
				{
					OFFSET -18.625099 8.655792 8.828100
					CHANNELS 3 Xrotation Yrotation Zrotation
					JOINT newVegas:Right_Collar1
					{
						OFFSET -14.783401 10.539993 -1.259500
						CHANNELS 3 Xrotation Yrotation Zrotation
						End Site
						{
							OFFSET 0.000000 18.199631 0.000000
						}
					}
				}
			}
		}
		JOINT newVegas:Belly
		{
			OFFSET 0.000000 -6.540398 9.014299
			CHANNELS 3 Xrotation Yrotation Zrotation
			End Site
			{
				OFFSET 0.000000 11.566666 0.000000
			}
		}
	}
	JOINT newVegas:ElvisFacialAnim_Joint
	{
		OFFSET 1.000000 -95.330101 -8.825800
		CHANNELS 3 Xrotation Yrotation Zrotation
		End Site
		{
			OFFSET 0.000000 35.315800 0.000000
		}
	}
}
MOTION
Frames: 4
Frame Time: 0.016667
10.743460 186.059326 74.790039 6.082128 18.807206 0.683155 0.000000 -0.000002 0.000000 -40.305090 17.745952 15.381147 61.500184 -6.969673 -0.630447 8.234583 -0.521577 -17.740607 0.000002 0.000000 0.000001 0.000001 -0.000003 0.000002 -55.921412 5.716925 -22.675050 20.219486 8.971230 1.065682 21.510859 20.512706 28.458793 -0.000000 0.000003 -0.000000 -0.000001 0.000002 -0.000000 7.295207 -2.193498 -5.033659 14.411475 -2.597692 1.282298 14.393225 -2.607809 1.534273 -1.383491 0.206508 -3.193054 -1.383481 0.206506 -3.193048 0.000002 0.000000 -0.000000 -1.383497 0.206507 -3.193049 -1.383502 0.206506 -3.193048 -0.000001 -0.000002 -0.000001 0.000002 0.000000 -0.000000 -1.645773 11.892281 6.117612 -105.464411 -55.286652 -116.659057 0.000994 -92.898933 0.001030 -8.263623 -7.356835 2.186955 -3.500383 23.141898 9.972904 -2.408897 12.775505 10.381903 0.000000 -0.000003 -0.000005 0.080939 1.054719 -8.775057 0.139281 1.380631 -11.520112 0.000001 0.000000 0.000001 0.080638 1.052816 -8.759067 0.139662 1.382523 -11.536114 0.000002 0.000001 -0.000000 0.080937 1.054719 -8.775056 0.139284 1.380629 -11.520112 0.000004 -0.000001 0.000000 0.683456 5.064142 -8.296808 0.133619 -2.674905 -12.020593 -0.000001 -0.000002 -0.000002 0.000001 0.000000 0.000002 0.000001 0.000000 0.000002 0.000000 0.000001 0.000002 0.000002 0.000003 -0.000001 0.000002 0.000002 -0.000003 0.000002 0.000003 -0.000001 -0.000000 0.000003 -0.000001 2.075059 14.947592 1.840486 -36.947297 40.337574 63.095034 -0.000013 48.043824 0.000018 31.938941 2.596846 0.748835 -7.605202 -2.521707 -16.077625 4.602777 -15.232225 -8.617247 0.000001 -0.000002 0.000003 0.672580 -2.988299 25.363209 0.151855 -1.448125 11.972219 -0.000003 -0.000002 0.000000 0.672582 -2.988275 25.363204 0.151859 -1.448122 11.972226 0.000001 -0.000001 0.000001 0.672587 -2.988283 25.363202 0.151853 -1.448116 11.972219 -0.000002 -0.000001 0.000001 0.672581 -2.988301 25.363204 0.151844 -1.448113 11.972225 -0.000000 -0.000002 -0.000002 -0.000000 0.000002 -0.000000 -0.000000 0.000002 0.000001 -0.000000 0.000002 0.000001 -0.000001 0.000000 0.000000 -0.000001 0.000000 0.000001 -0.000001 0.000000 0.000000 -0.000001 -0.000000 0.000001 -0.000001 0.000000 -0.000000 -0.000001 0.000000 -0.000000 -0.000001 0.000000 -0.000000 -0.000001 0.000000 -0.000000 -0.000001 0.000000 -0.000000 -0.000001 0.000000 -0.000000 -0.000001 0.000000 -0.000000 0.000001 0.000001 -0.000000 0.000000 -0.000002 0.000000 
10.887908 183.209564 77.366699 5.017794 18.597630 1.169483 0.000000 0.000000 0.000000 -39.578419 17.839923 15.043565 60.285913 -6.143167 -0.582412 9.634499 -0.910794 -17.663967 -0.000000 0.000003 -0.000001 0.000001 0.000004 -0.000002 -54.165965 5.219680 -22.569749 20.186879 8.601314 1.100574 23.011548 21.398942 27.371155 0.000000 0.000004 0.000000 0.000003 -0.000001 0.000000 7.337449 -2.037533 -5.055628 14.383883 -2.380558 1.213553 14.364183 -2.405677 1.448307 -1.329557 0.165142 -3.114223 -1.329576 0.165145 -3.114219 0.000001 0.000000 0.000000 -1.329594 0.165146 -3.114224 -1.329434 0.165153 -3.114225 0.000000 0.000000 -0.000001 0.000001 0.000000 -0.000000 -1.522763 11.317935 5.579480 -102.529377 -55.782992 -113.588785 -0.001814 -91.991781 -0.001756 -9.879211 -6.284508 1.313715 -3.500356 23.141775 9.972871 -2.408829 12.775480 10.381839 0.000002 -0.000003 -0.000005 0.080942 1.054715 -8.774998 0.139258 1.380625 -11.520034 -0.000002 0.000000 0.000000 0.080639 1.052802 -8.759000 0.139651 1.382515 -11.536025 0.000003 -0.000001 0.000003 0.080933 1.054714 -8.774995 0.139268 1.380630 -11.520035 0.000001 -0.000001 -0.000001 0.683437 5.064136 -8.296736 0.133620 -2.674932 -12.020515 -0.000002 -0.000002 0.000003 -0.000000 -0.000001 -0.000001 -0.000000 -0.000001 -0.000001 -0.000001 -0.000001 -0.000001 -0.000002 0.000002 -0.000002 -0.000002 0.000001 -0.000004 -0.000002 0.000002 -0.000002 -0.000002 0.000001 -0.000002 2.084716 14.908508 1.923962 -37.666123 40.172601 63.297726 -0.000015 48.302681 0.000002 32.519415 2.624569 1.993036 -7.604265 -2.522132 -16.076189 4.602777 -15.232172 -8.617174 0.000003 -0.000001 -0.000004 0.672559 -2.988262 25.363016 0.151856 -1.448097 11.972130 -0.000000 -0.000001 -0.000002 0.672560 -2.988243 25.363016 0.151857 -1.448114 11.972122 0.000000 -0.000001 0.000000 0.672568 -2.988253 25.363025 0.151853 -1.448104 11.972130 0.000001 0.000001 -0.000000 0.672563 -2.988265 25.363018 0.151859 -1.448102 11.972130 -0.000001 0.000002 -0.000001 0.000000 0.000004 -0.000001 0.000000 0.000003 0.000000 0.000000 0.000003 -0.000000 0.000001 0.000001 -0.000000 0.000001 0.000000 -0.000000 0.000001 0.000001 -0.000000 0.000001 -0.000000 -0.000000 0.000004 0.000000 -0.000001 0.000004 0.000000 -0.000001 0.000004 0.000000 -0.000001 0.000004 0.000000 -0.000001 0.000004 0.000000 -0.000001 0.000004 0.000000 -0.000001 0.000004 0.000000 -0.000001 -0.000000 0.000002 -0.000000 0.000000 0.000000 0.000000 
11.045309 180.113358 79.924133 3.929929 18.254898 1.627599 -0.000000 0.000001 -0.000000 -38.569730 17.805878 14.721750 58.754011 -5.792137 -0.553116 10.725281 -1.231584 -17.997130 -0.000001 -0.000003 -0.000001 0.000001 -0.000004 0.000003 -52.400593 4.596855 -22.334669 20.430856 8.327451 1.123187 24.348743 21.718880 26.052295 0.000000 0.000002 0.000001 0.000004 -0.000001 0.000000 7.368138 -1.857263 -5.047232 14.331760 -2.196023 1.072489 14.312124 -2.231722 1.291072 -1.262367 0.125273 -2.999952 -1.262354 0.125278 -2.999955 -0.000001 0.000000 -0.000000 -1.262350 0.125286 -2.999952 -1.262356 0.125270 -2.999951 -0.000002 -0.000000 -0.000001 -0.000001 0.000000 -0.000001 -1.447310 10.959916 5.211209 -99.827709 -56.207204 -110.766728 -0.003311 -90.695821 -0.003129 -11.177056 -5.296999 0.456591 -3.500320 23.141564 9.972821 -2.408762 12.775437 10.381722 -0.000000 0.000000 -0.000003 0.080925 1.054704 -8.774910 0.139269 1.380614 -11.519927 0.000003 -0.000000 -0.000001 0.080630 1.052795 -8.758915 0.139646 1.382504 -11.535906 -0.000001 -0.000001 0.000000 0.080924 1.054699 -8.774908 0.139272 1.380616 -11.519928 -0.000002 -0.000001 0.000001 0.683418 5.064127 -8.296667 0.133624 -2.674938 -12.020391 0.000002 -0.000000 0.000002 0.000002 0.000002 -0.000002 0.000002 0.000002 -0.000002 0.000001 0.000002 -0.000002 -0.000001 0.000003 -0.000004 -0.000001 0.000002 -0.000004 -0.000001 0.000003 -0.000004 -0.000001 0.000003 -0.000005 2.080138 14.739084 2.062843 -38.227831 39.650983 63.883702 -0.000011 49.554382 0.000010 33.231777 2.131662 3.145253 -7.602976 -2.522655 -16.074148 4.602780 -15.232082 -8.617079 0.000002 0.000001 -0.000004 0.672547 -2.988233 25.362758 0.151859 -1.448084 11.971990 -0.000002 -0.000002 0.000000 0.672556 -2.988222 25.362753 0.151855 -1.448085 11.971985 0.000001 0.000000 0.000001 0.672546 -2.988221 25.362753 0.151861 -1.448092 11.971997 -0.000000 0.000001 -0.000001 0.672542 -2.988234 25.362760 0.151865 -1.448082 11.971988 -0.000002 0.000003 -0.000001 -0.000000 0.000002 0.000001 0.000001 0.000001 0.000002 -0.000000 0.000001 0.000002 -0.000002 0.000000 0.000001 -0.000002 0.000000 0.000001 -0.000002 0.000000 0.000001 -0.000002 -0.000000 0.000001 0.000000 0.000001 -0.000000 0.000000 0.000001 -0.000000 0.000000 0.000001 -0.000000 0.000000 0.000001 -0.000000 0.000000 0.000001 -0.000000 0.000000 0.000001 -0.000000 0.000000 0.000001 -0.000000 -0.000000 0.000002 -0.000000 -0.000000 0.000001 -0.000000 
11.213257 176.782928 82.461647 2.857834 17.830941 2.026920 0.000000 -0.000001 -0.000000 -37.364779 17.675244 14.391509 56.897245 -5.746935 -0.535294 11.570718 -1.502201 -18.632732 0.000001 -0.000001 -0.000001 0.000003 0.000004 -0.000000 -50.596221 3.850701 -22.019492 20.859514 8.120583 1.130704 25.517452 21.498234 24.628807 -0.000000 0.000001 0.000000 -0.000001 0.000000 -0.000002 7.380492 -1.661896 -4.993311 14.253380 -2.029492 0.889715 14.234364 -2.070370 1.095187 -1.194253 0.089437 -2.870076 -1.194266 0.089434 -2.870070 0.000002 0.000000 -0.000001 -1.194257 0.089436 -2.870079 -1.194242 0.089433 -2.870069 0.000001 0.000000 -0.000001 0.000002 0.000000 -0.000002 -1.416798 10.842146 5.015828 -97.509249 -56.558488 -108.357884 -0.002177 -89.117890 -0.002052 -12.155365 -4.424790 -0.433200 -3.500289 23.141376 9.972770 -2.408708 12.775398 10.381620 -0.000002 0.000001 -0.000003 0.080919 1.054696 -8.774811 0.139254 1.380594 -11.519796 -0.000003 -0.000000 0.000002 0.080622 1.052788 -8.758816 0.139645 1.382485 -11.535787 0.000001 -0.000001 0.000000 0.080921 1.054693 -8.774813 0.139260 1.380592 -11.519787 0.000000 0.000001 0.000002 0.683400 5.064119 -8.296569 0.133617 -2.674943 -12.020277 0.000001 -0.000002 -0.000000 0.000001 0.000000 0.000001 0.000001 0.000000 0.000001 -0.000000 0.000000 0.000001 -0.000002 -0.000002 0.000001 -0.000002 -0.000003 0.000000 -0.000002 -0.000002 0.000001 -0.000002 -0.000001 0.000001 2.065494 14.495174 2.197902 -38.516383 38.803934 64.754933 -0.000030 51.747084 0.000043 34.057591 1.236719 4.088625 -7.601779 -2.522974 -16.072115 4.602791 -15.232034 -8.616992 0.000003 -0.000005 -0.000001 0.672539 -2.988204 25.362499 0.151849 -1.448084 11.971884 -0.000001 0.000001 -0.000001 0.672533 -2.988187 25.362499 0.151853 -1.448090 11.971883 0.000003 -0.000000 0.000000 0.672534 -2.988186 25.362506 0.151851 -1.448093 11.971886 -0.000000 -0.000001 0.000001 0.672542 -2.988209 25.362500 0.151847 -1.448079 11.971878 -0.000001 -0.000002 0.000001 -0.000001 -0.000000 -0.000003 0.000000 -0.000002 0.000002 -0.000001 -0.000000 -0.000003 0.000004 0.000001 -0.000000 0.000004 0.000001 0.000001 0.000004 0.000001 -0.000000 0.000004 0.000001 0.000001 0.000002 -0.000001 0.000000 0.000002 -0.000001 0.000000 0.000002 -0.000001 0.000000 0.000002 -0.000001 0.000000 0.000002 -0.000001 0.000000 0.000002 -0.000001 0.000000 0.000002 -0.000001 0.000000 -0.000001 0.000000 0.000001 0.000000 -0.000001 -0.000000 
